<?xml version="1.0" encoding="utf-8"?>
<!-- Generator: Adobe Illustrator 23.0.2, SVG Export Plug-In . SVG Version: 6.00 Build 0)  -->
<svg version="1.1" id="Слой_1" xmlns="http://www.w3.org/2000/svg" xmlns:xlink="http://www.w3.org/1999/xlink" x="0px" y="0px"
	 viewBox="0 0 39.3 37" style="enable-background:new 0 0 39.3 37;" xml:space="preserve">
<style type="text/css">
	.st0{fill-rule:evenodd;clip-rule:evenodd;fill:#FF3B4A;}
</style>
<path id="Pencil" class="st0" d="M39.2,12.9C37.1,7.3,32.9,2.7,27.5,0.1c-0.3-0.1-0.7-0.1-0.9,0.1l-17.5,16l-2,1.8
	c-0.1,0.1-0.2,0.2-0.3,0.3c0,0,0,0,0,0.1L2.1,30.7l-2,5.2c-0.2,0.4,0,0.9,0.5,1.1C0.6,37,0.7,37,0.8,37c0.1,0,0.2,0,0.2,0l5.4-1.5
	l12.6-3.6c0.1,0,0.2-0.1,0.2-0.1c0,0,0.1-0.1,0.1-0.1l2.1-1.9l17.5-16C39.2,13.6,39.3,13.2,39.2,12.9z M3.3,32.1c0,0,0.1,0,0.1,0.1
	c0.4,0.2,0.7,0.5,1,0.8c0.3,0.3,0.5,0.7,0.7,1c0,0,0,0.1,0,0.1l-2.9,0.8L3.3,32.1z M18.5,30.3L6.7,33.6c0-0.1-0.1-0.1-0.1-0.2
	c-0.3-0.6-0.6-1.1-1-1.6c-0.4-0.5-1-0.9-1.5-1.2c-0.1,0-0.1-0.1-0.2-0.1l4.4-11.3L9.6,18l1.1,1.2l9.1,10L18.5,30.3z M21,28l-2.6-2.9
	l13.9-12.7c0.2-0.2,0.3-0.4,0.3-0.6c0-0.2-0.1-0.4-0.2-0.6c-0.3-0.3-0.8-0.4-1.2-0.1L17.2,23.9l-0.5-0.6L14.6,21L28.5,8.3
	c0.3-0.3,0.4-0.8,0.1-1.2c-0.3-0.3-0.8-0.4-1.2-0.1c0,0,0,0,0,0L13.5,19.7l-2.6-2.9l16.4-15c4.6,2.4,8.2,6.3,10.2,11.1L21,28z"/>
</svg>
