<?xml version="1.0" encoding="utf-8"?>
<!-- Generator: Adobe Illustrator 23.0.2, SVG Export Plug-In . SVG Version: 6.00 Build 0)  -->
<svg version="1.1" id="Слой_1" xmlns="http://www.w3.org/2000/svg" xmlns:xlink="http://www.w3.org/1999/xlink" x="0px" y="0px"
	 viewBox="0 0 40.1 40.2" style="enable-background:new 0 0 40.1 40.2;" xml:space="preserve">
<style type="text/css">
	.st0{fill-rule:evenodd;clip-rule:evenodd;fill:#FF3B4A;}
</style>
<path id="Settings" class="st0" d="M20,25.7c-3.1,0-5.6-2.5-5.6-5.5s2.5-5.6,5.5-5.6s5.6,2.5,5.6,5.5c0,0,0,0,0,0
	C25.6,23.2,23.1,25.6,20,25.7z M20,16c-2.3,0-4.1,1.8-4.1,4.1c0,2.3,1.8,4.1,4.1,4.1c2.3,0,4.1-1.8,4.1-4.1c0,0,0,0,0,0
	C24.1,17.8,22.3,16,20,16z M17.6,40.2c-0.3,0-0.6-0.2-0.7-0.5l-1.2-5c-1-0.3-1.9-0.7-2.8-1.2l-4.4,2.7c-0.3,0.2-0.6,0.1-0.9-0.1
	l-3.4-3.4c-0.2-0.2-0.3-0.6-0.1-0.9l2.6-4.4c-0.5-0.9-0.9-1.9-1.2-2.8l-5-1.2C0.2,23.1,0,22.8,0,22.5v-4.8c0-0.3,0.2-0.6,0.5-0.7
	l4.9-1.2c0.3-1,0.7-1.9,1.2-2.8L4.1,8.5C3.9,8.2,3.9,7.8,4.2,7.6l3.4-3.4c0.2-0.2,0.6-0.3,0.9-0.1l4.4,2.6c0.9-0.5,1.8-0.9,2.8-1.2
	l1.2-5C17,0.2,17.3,0,17.6,0h4.8c0.3,0,0.6,0.2,0.7,0.5l1.2,5c1,0.3,1.9,0.7,2.8,1.2l4.4-2.7c0.3-0.2,0.6-0.1,0.9,0.1l3.4,3.4
	c0.2,0.2,0.3,0.6,0.1,0.9l-2.6,4.4c0.5,0.9,0.9,1.8,1.2,2.8l5,1.3c0.3,0.1,0.5,0.4,0.5,0.7v4.8c0,0.3-0.2,0.6-0.5,0.7l-5,1.3
	c-0.3,1-0.7,1.9-1.2,2.8l2.6,4.4c0.2,0.3,0.1,0.6-0.1,0.9L32.5,36c-0.2,0.2-0.6,0.3-0.9,0.1l-4.4-2.7c-0.9,0.5-1.9,0.9-2.8,1.2
	l-1.2,5c-0.1,0.3-0.4,0.5-0.7,0.5L17.6,40.2L17.6,40.2L17.6,40.2z M12.8,31.9c0.1,0,0.3,0,0.4,0.1c1,0.6,2.1,1.1,3.3,1.4
	c0.2,0.1,0.4,0.3,0.5,0.5l1.2,4.8h3.7l1.2-4.8c0.1-0.2,0.3-0.4,0.5-0.5c1.1-0.3,2.2-0.8,3.3-1.4c0.2-0.1,0.5-0.1,0.7,0l4.3,2.6
	l2.6-2.6l-2.6-4.3c-0.1-0.2-0.1-0.5,0-0.7c0.6-1,1-2.1,1.4-3.3c0.1-0.3,0.3-0.4,0.5-0.5l4.8-1.2v-3.7L33.8,17
	c-0.3-0.1-0.5-0.3-0.5-0.5c-0.3-1.1-0.8-2.2-1.3-3.3c-0.1-0.2-0.1-0.5,0-0.7l2.6-4.3l-2.6-2.6l-4.3,2.6c-0.2,0.1-0.5,0.1-0.7,0
	c-1-0.6-2.1-1.1-3.3-1.4c-0.2-0.1-0.4-0.3-0.5-0.5l-1.2-4.8h-3.7L17,6.3c-0.1,0.3-0.3,0.5-0.5,0.5c-1.1,0.3-2.2,0.8-3.3,1.4
	c-0.2,0.1-0.5,0.1-0.7,0L8.2,5.6L5.6,8.2l2.6,4.3c0.1,0.2,0.1,0.5,0,0.7c-0.6,1-1.1,2.1-1.4,3.3C6.7,16.8,6.5,17,6.2,17l-4.8,1.2
	v3.7l4.8,1.2c0.3,0.1,0.5,0.3,0.5,0.5c0.3,1.1,0.8,2.2,1.4,3.3c0.1,0.2,0.1,0.5,0,0.7L5.6,32l2.6,2.6l4.3-2.6
	C12.6,32,12.7,31.9,12.8,31.9z"/>
</svg>
