<?xml version="1.0" encoding="utf-8"?>
<!-- Generator: Adobe Illustrator 23.0.2, SVG Export Plug-In . SVG Version: 6.00 Build 0)  -->
<svg version="1.1" id="Слой_1" xmlns="http://www.w3.org/2000/svg" xmlns:xlink="http://www.w3.org/1999/xlink" x="0px" y="0px"
	 viewBox="0 0 44 33" style="enable-background:new 0 0 44 33;" xml:space="preserve">
<style type="text/css">
	.st0{fill-rule:evenodd;clip-rule:evenodd;fill:#FF3B4A;}
</style>
<path id="Truck_2" class="st0" d="M43.9,16.4V6c0-0.4-0.4-0.8-0.8-0.8h-15V0.8c0-0.4-0.4-0.8-0.8-0.8H0.8C0.4,0,0,0.3,0,0.8V27
	c0,0.4,0.4,0.8,0.8,0.8c0,0,0,0,0,0h2.7c0.4,0,0.8-0.3,0.8-0.8s-0.3-0.8-0.8-0.8c0,0,0,0-0.1,0H1.6V1.6h25v19.6
	c0,0.4,0.4,0.8,0.8,0.8c0.4,0,0.8-0.4,0.8-0.8V6.8h6.3v9.7c0,0.4,0.4,0.8,0.8,0.8c0,0,0,0,0,0h7.1v8.9h-1.8c-0.4,0-0.8,0.3-0.8,0.8
	c0,0.4,0.3,0.8,0.8,0.8c0,0,0,0,0.1,0h2.6c0.4,0,0.8-0.3,0.8-0.8c0,0,0,0,0,0V16.6C43.9,16.6,44,16.6,43.9,16.4
	C44,16.5,44,16.5,43.9,16.4z M42.4,15.8H36V6.8h6.3C42.4,6.8,42.4,15.8,42.4,15.8z M32.6,21c-3.3,0-6,2.8-6,6.1s2.8,6,6.1,6
	c3.3,0,6-2.7,6-6C38.7,23.6,35.9,20.9,32.6,21L32.6,21z M32.6,31.4c-2.5,0-4.4-2-4.4-4.5s2-4.4,4.5-4.4c2.4,0,4.4,2,4.4,4.5
	C37.1,29.4,35.1,31.4,32.6,31.4L32.6,31.4z M11.4,20.9c-3.3,0-6,2.8-5.9,6.1c0,3.3,2.8,6,6.1,5.9c3.3,0,5.9-2.7,5.9-6
	C17.5,23.6,14.7,20.9,11.4,20.9z M11.4,31.4c-2.5,0-4.4-2-4.4-4.5s2-4.4,4.5-4.4c2.4,0,4.4,2,4.4,4.5C15.9,29.4,13.9,31.4,11.4,31.4
	L11.4,31.4z M24.7,26.2h-5.3c-0.4,0-0.8,0.3-0.8,0.8c0,0.4,0.3,0.8,0.8,0.8c0,0,0,0,0.1,0h5.3c0.4,0,0.8-0.3,0.8-0.7
	C25.5,26.6,25.2,26.2,24.7,26.2C24.7,26.2,24.7,26.2,24.7,26.2L24.7,26.2z"/>
</svg>
