<svg xmlns="http://www.w3.org/2000/svg" xmlns:xlink="http://www.w3.org/1999/xlink" width="0" height="0" style="position:absolute">
	
		<symbol id="icon-bars-solid" viewBox="0 0 448 512">
			<path d="M16 132h416c8.837 0 16-7.163 16-16V76c0-8.837-7.163-16-16-16H16C7.163 60 0 67.163 0 76v40c0 8.837 7.163 16 16 16zm0 160h416c8.837 0 16-7.163 16-16v-40c0-8.837-7.163-16-16-16H16c-8.837 0-16 7.163-16 16v40c0 8.837 7.163 16 16 16zm0 160h416c8.837 0 16-7.163 16-16v-40c0-8.837-7.163-16-16-16H16c-8.837 0-16 7.163-16 16v40c0 8.837 7.163 16 16 16z"></path>
		</symbol>
	
		<symbol id="icon-diamond" viewBox="0 0 40.1 33">
			<style>.st0{fill-rule:evenodd;clip-rule:evenodd;fill:#ff3b4a}</style><path id="Diamond" class="st0" d="M40.1 10.4c0-.1 0-.2-.1-.3L35.9.4c-.1-.2-.4-.4-.7-.4H4.8c-.2 0-.5.2-.6.4L.1 10.1V10.4c0 .2.1.3.2.4l19.3 21.8h.1s.1.1.2.1c.2.1.4.1.6 0 .1 0 .1-.1.2-.1h.1l19.3-21.8c-.1 0 0-.2 0-.4zM25 1.4l3.6 8.3h-17l3.6-8.3H25zm3.5 9.7L20 30.5l-8.5-19.3 17-.1zm-18.5 0l7.5 17.2L2.3 11.1H10zm20.1 0h7.7L22.6 28.3l7.5-17.2zm8.2-1.4h-8.2l-3.6-8.3h8.2l3.6 8.3zm-33-8.3h8.2L10 9.7H1.8l3.5-8.3z"></path>
		</symbol>
	
		<symbol id="icon-facebook" viewBox="0 0 320 512">
			<path d="M279.14 288l14.22-92.66h-88.91v-60.13c0-25.35 12.42-50.06 52.24-50.06h40.42V6.26S260.43 0 225.36 0c-73.22 0-121.08 44.38-121.08 124.72v70.62H22.89V288h81.39v224h100.17V288z"></path>
		</symbol>
	
		<symbol id="icon-google-plus" viewBox="0 0 640 512">
			<path d="M386.061 228.496c1.834 9.692 3.143 19.384 3.143 31.956C389.204 370.205 315.599 448 204.8 448c-106.084 0-192-85.915-192-192s85.916-192 192-192c51.864 0 95.083 18.859 128.611 50.292l-52.126 50.03c-14.145-13.621-39.028-29.599-76.485-29.599-65.484 0-118.92 54.221-118.92 121.277 0 67.056 53.436 121.277 118.92 121.277 75.961 0 104.513-54.745 108.965-82.773H204.8v-66.009h181.261zm185.406 6.437V179.2h-56.001v55.733h-55.733v56.001h55.733v55.733h56.001v-55.733H627.2v-56.001h-55.733z"></path>
		</symbol>
	
		<symbol id="icon-linkedin" viewBox="0 0 448 512">
			<path d="M100.28 448H7.4V148.9h92.88zM53.79 108.1C24.09 108.1 0 83.5 0 53.8a53.79 53.79 0 0 1 107.58 0c0 29.7-24.1 54.3-53.79 54.3zM447.9 448h-92.68V302.4c0-34.7-.7-79.2-48.29-79.2-48.29 0-55.69 37.7-55.69 76.7V448h-92.78V148.9h89.08v40.8h1.3c12.4-23.5 42.69-48.3 87.88-48.3 94 0 111.28 61.9 111.28 142.3V448z"></path>
		</symbol>
	
		<symbol id="icon-pencil" viewBox="0 0 39.3 37">
			<style>.st0{fill-rule:evenodd;clip-rule:evenodd;fill:#ff3b4a}</style><path id="Pencil" class="st0" d="M39.2 12.9C37.1 7.3 32.9 2.7 27.5.1c-.3-.1-.7-.1-.9.1l-17.5 16-2 1.8-.3.3v.1L2.1 30.7l-2 5.2c-.2.4 0 .9.5 1.1H1l5.4-1.5L19 31.9c.1 0 .2-.1.2-.1l.1-.1 2.1-1.9 17.5-16c.3-.2.4-.6.3-.9zM3.3 32.1s.1 0 .1.1c.4.2.7.5 1 .8.3.3.5.7.7 1v.1l-2.9.8 1.1-2.8zm15.2-1.8L6.7 33.6c0-.1-.1-.1-.1-.2-.3-.6-.6-1.1-1-1.6s-1-.9-1.5-1.2c-.1 0-.1-.1-.2-.1l4.4-11.3L9.6 18l1.1 1.2 9.1 10-1.3 1.1zM21 28l-2.6-2.9 13.9-12.7c.2-.2.3-.4.3-.6 0-.2-.1-.4-.2-.6-.3-.3-.8-.4-1.2-.1l-14 12.8-.5-.6-2.1-2.3L28.5 8.3c.3-.3.4-.8.1-1.2-.3-.3-.8-.4-1.2-.1L13.5 19.7l-2.6-2.9 16.4-15c4.6 2.4 8.2 6.3 10.2 11.1L21 28z"></path>
		</symbol>
	
		<symbol id="icon-play-circle" viewBox="0 0 512 512">
			<path d="M371.7 238l-176-107c-15.8-8.8-35.7 2.5-35.7 21v208c0 18.4 19.8 29.8 35.7 21l176-101c16.4-9.1 16.4-32.8 0-42zM504 256C504 119 393 8 256 8S8 119 8 256s111 248 248 248 248-111 248-248zm-448 0c0-110.5 89.5-200 200-200s200 89.5 200 200-89.5 200-200 200S56 366.5 56 256z"></path>
		</symbol>
	
		<symbol id="icon-settings" viewBox="0 0 40.1 40.2">
			<style>.st0{fill-rule:evenodd;clip-rule:evenodd;fill:#ff3b4a}</style><path id="Settings" class="st0" d="M20 25.7c-3.1 0-5.6-2.5-5.6-5.5s2.5-5.6 5.5-5.6 5.6 2.5 5.6 5.5c.1 3.1-2.4 5.5-5.5 5.6zm0-9.7c-2.3 0-4.1 1.8-4.1 4.1s1.8 4.1 4.1 4.1 4.1-1.8 4.1-4.1S22.3 16 20 16zm-2.4 24.2c-.3 0-.6-.2-.7-.5l-1.2-5c-1-.3-1.9-.7-2.8-1.2l-4.4 2.7c-.3.2-.6.1-.9-.1l-3.4-3.4c-.2-.2-.3-.6-.1-.9l2.6-4.4c-.5-.9-.9-1.9-1.2-2.8l-5-1.2c-.3-.3-.5-.6-.5-.9v-4.8c0-.3.2-.6.5-.7l4.9-1.2c.3-1 .7-1.9 1.2-2.8L4.1 8.5c-.2-.3-.2-.7.1-.9l3.4-3.4c.2-.2.6-.3.9-.1l4.4 2.6c.9-.5 1.8-.9 2.8-1.2l1.2-5c.1-.3.4-.5.7-.5h4.8c.3 0 .6.2.7.5l1.2 5c1 .3 1.9.7 2.8 1.2L31.5 4c.3-.2.6-.1.9.1l3.4 3.4c.2.2.3.6.1.9l-2.6 4.4c.5.9.9 1.8 1.2 2.8l5 1.3c.3.1.5.4.5.7v4.8c0 .3-.2.6-.5.7l-5 1.3c-.3 1-.7 1.9-1.2 2.8l2.6 4.4c.2.3.1.6-.1.9L32.5 36c-.2.2-.6.3-.9.1l-4.4-2.7c-.9.5-1.9.9-2.8 1.2l-1.2 5c-.1.3-.4.5-.7.5l-4.9.1zm-4.8-8.3c.1 0 .3 0 .4.1 1 .6 2.1 1.1 3.3 1.4.2.1.4.3.5.5l1.2 4.8h3.7l1.2-4.8c.1-.2.3-.4.5-.5 1.1-.3 2.2-.8 3.3-1.4.2-.1.5-.1.7 0l4.3 2.6 2.6-2.6-2.6-4.3c-.1-.2-.1-.5 0-.7.6-1 1-2.1 1.4-3.3.1-.3.3-.4.5-.5l4.8-1.2v-3.7L33.8 17c-.3-.1-.5-.3-.5-.5-.3-1.1-.8-2.2-1.3-3.3-.1-.2-.1-.5 0-.7l2.6-4.3L32 5.6l-4.3 2.6c-.2.1-.5.1-.7 0-1-.6-2.1-1.1-3.3-1.4-.2-.1-.4-.3-.5-.5L22 1.5h-3.7L17 6.3c-.1.3-.3.5-.5.5-1.1.3-2.2.8-3.3 1.4-.2.1-.5.1-.7 0L8.2 5.6 5.6 8.2l2.6 4.3c.1.2.1.5 0 .7-.6 1-1.1 2.1-1.4 3.3-.1.3-.3.5-.6.5l-4.8 1.2v3.7l4.8 1.2c.3.1.5.3.5.5.3 1.1.8 2.2 1.4 3.3.1.2.1.5 0 .7L5.6 32l2.6 2.6 4.3-2.6c.1 0 .2-.1.3-.1z"></path>
		</symbol>
	
		<symbol id="icon-truck" viewBox="0 0 44 33">
			<style>.st0{fill-rule:evenodd;clip-rule:evenodd;fill:#ff3b4a}</style><path id="Truck_2" class="st0" d="M43.9 16.4V6c0-.4-.4-.8-.8-.8h-15V.8c0-.4-.4-.8-.8-.8H.8C.4 0 0 .3 0 .8V27c0 .4.4.8.8.8h2.7c.4 0 .8-.3.8-.8s-.3-.8-.8-.8H1.6V1.6h25v19.6c0 .4.4.8.8.8s.8-.4.8-.8V6.8h6.3v9.7c0 .4.4.8.8.8h7.1v8.9h-1.8c-.4 0-.8.3-.8.8 0 .4.3.8.8.8h2.7c.4 0 .8-.3.8-.8V16.6c-.2 0-.1 0-.2-.2.1.1.1.1 0 0zm-1.5-.6H36v-9h6.3c.1 0 .1 9 .1 9zM32.6 21c-3.3 0-6 2.8-6 6.1s2.8 6 6.1 6 6-2.7 6-6c0-3.5-2.8-6.2-6.1-6.1zm0 10.4c-2.5 0-4.4-2-4.4-4.5s2-4.4 4.5-4.4c2.4 0 4.4 2 4.4 4.5 0 2.4-2 4.4-4.5 4.4zM11.4 20.9c-3.3 0-6 2.8-5.9 6.1 0 3.3 2.8 6 6.1 5.9 3.3 0 5.9-2.7 5.9-6s-2.8-6-6.1-6zm0 10.5c-2.5 0-4.4-2-4.4-4.5s2-4.4 4.5-4.4c2.4 0 4.4 2 4.4 4.5 0 2.4-2 4.4-4.5 4.4zm13.3-5.2h-5.3c-.4 0-.8.3-.8.8 0 .4.3.8.8.8H24.8c.4 0 .8-.3.8-.7-.1-.5-.4-.9-.9-.9z"></path>
		</symbol>
	
		<symbol id="icon-twitter" viewBox="0 0 512 512">
			<path d="M459.37 151.716c.325 4.548.325 9.097.325 13.645 0 138.72-105.583 298.558-298.558 298.558-59.452 0-114.68-17.219-161.137-47.106 8.447.974 16.568 1.299 25.34 1.299 49.055 0 94.213-16.568 130.274-44.832-46.132-.975-84.792-31.188-98.112-72.772 6.498.974 12.995 1.624 19.818 1.624 9.421 0 18.843-1.3 27.614-3.573-48.081-9.747-84.143-51.98-84.143-102.985v-1.299c13.969 7.797 30.214 12.67 47.431 13.319-28.264-18.843-46.781-51.005-46.781-87.391 0-19.492 5.197-37.36 14.294-52.954 51.655 63.675 129.3 105.258 216.365 109.807-1.624-7.797-2.599-15.918-2.599-24.04 0-57.828 46.782-104.934 104.934-104.934 30.213 0 57.502 12.67 76.67 33.137 23.715-4.548 46.456-13.32 66.599-25.34-7.798 24.366-24.366 44.833-46.132 57.827 21.117-2.273 41.584-8.122 60.426-16.243-14.292 20.791-32.161 39.308-52.628 54.253z"></path>
		</symbol>
	
		<symbol id="icon-window-close" viewBox="0 0 512 512">
			<path d="M464 32H48C21.5 32 0 53.5 0 80v352c0 26.5 21.5 48 48 48h416c26.5 0 48-21.5 48-48V80c0-26.5-21.5-48-48-48zm0 394c0 3.3-2.7 6-6 6H54c-3.3 0-6-2.7-6-6V86c0-3.3 2.7-6 6-6h404c3.3 0 6 2.7 6 6v340zM356.5 194.6L295.1 256l61.4 61.4c4.6 4.6 4.6 12.1 0 16.8l-22.3 22.3c-4.6 4.6-12.1 4.6-16.8 0L256 295.1l-61.4 61.4c-4.6 4.6-12.1 4.6-16.8 0l-22.3-22.3c-4.6-4.6-4.6-12.1 0-16.8l61.4-61.4-61.4-61.4c-4.6-4.6-4.6-12.1 0-16.8l22.3-22.3c4.6-4.6 12.1-4.6 16.8 0l61.4 61.4 61.4-61.4c4.6-4.6 12.1-4.6 16.8 0l22.3 22.3c4.7 4.6 4.7 12.1 0 16.8z"></path>
		</symbol>
	
</svg>
