<?xml version="1.0" encoding="utf-8"?>
<!-- Generator: Adobe Illustrator 23.0.2, SVG Export Plug-In . SVG Version: 6.00 Build 0)  -->
<svg version="1.1" id="Слой_1" xmlns="http://www.w3.org/2000/svg" xmlns:xlink="http://www.w3.org/1999/xlink" x="0px" y="0px"
	 viewBox="0 0 40.1 33" style="enable-background:new 0 0 40.1 33;" xml:space="preserve">
<style type="text/css">
	.st0{fill-rule:evenodd;clip-rule:evenodd;fill:#FF3B4A;}
</style>
<path id="Diamond" class="st0" d="M40.1,10.4C40.1,10.4,40.1,10.4,40.1,10.4c0-0.1,0-0.2-0.1-0.3l-4.1-9.7C35.8,0.2,35.5,0,35.2,0
	H4.8C4.6,0,4.3,0.2,4.2,0.4l-4.1,9.7c0,0.1,0,0.1,0,0.2c0,0,0,0,0,0.1c0,0,0,0,0,0c0,0.2,0.1,0.3,0.2,0.4l19.3,21.8c0,0,0,0,0.1,0
	c0,0,0.1,0.1,0.2,0.1c0,0,0,0,0,0c0.2,0.1,0.4,0.1,0.6,0c0,0,0,0,0,0c0.1,0,0.1-0.1,0.2-0.1c0,0,0,0,0.1,0l19.3-21.8
	C40,10.8,40.1,10.6,40.1,10.4C40.1,10.4,40.1,10.4,40.1,10.4z M25,1.4l3.6,8.3h-17l3.6-8.3C15.1,1.4,25,1.4,25,1.4z M28.5,11.1
	L20,30.5l-8.5-19.3L28.5,11.1L28.5,11.1z M10,11.1l7.5,17.2L2.3,11.1L10,11.1L10,11.1z M30.1,11.1h7.7L22.6,28.3L30.1,11.1z
	 M38.3,9.7h-8.2l-3.6-8.3h8.2L38.3,9.7z M5.3,1.4h8.2L10,9.7H1.8L5.3,1.4z"/>
</svg>
